<svg width="68" height="80" viewBox="0 0 68 80" xmlns="http://www.w3.org/2000/svg">
  <g fill="#fff">
    <path d="M35.357 44.653c-1.026-1.024-1.689-2.335-1.988-3.936-.171-.938-.257-2.655-.257-5.151s.085-4.212.257-5.151c.299-1.6.962-2.912 1.988-3.935 1.666-1.663 3.717-2.495 6.152-2.496l-41.509-23.913v24.104h8.611c2.201 0 3.928.576 5.178 1.728 1.25 1.152 1.876 2.709 1.876 4.671 0 1.152-.321 2.187-.963 3.104-.534.726-1.154 1.259-1.859 1.6 2.095.981 3.142 2.688 3.142 5.119 0 2.069-.641 3.679-1.924 4.831-1.282 1.152-2.971 1.728-5.066 1.728h-8.996v24.105l41.509-23.913c-2.436-.001-4.487-.833-6.152-2.495zm-13.037-20.477h4.457v22.78h-4.457v-22.78z"/>
    <path d="M49.03 42.816l12.583-7.249-13.821-7.962-2.303 2.299c-.706-.704-1.304-1.194-1.796-1.472-.62-.32-1.347-.479-2.18-.479-1.177 0-2.128.405-2.854 1.215-.556.64-.897 1.664-1.026 3.071-.043.384-.064 1.494-.064 3.328 0 1.835.021 2.943.064 3.327.129 1.43.47 2.464 1.026 3.104.705.789 1.657 1.184 2.854 1.184 1.239 0 2.254-.427 3.046-1.279.663-.725.994-1.76.994-3.104v-.8h-4.04v-3.743h8.497v3.271c0 2.159-.332 3.916-.98 5.289"/>
    <path d="M3.897 42.99h4.65c.962 0 1.699-.266 2.212-.8.513-.533.77-1.204.77-2.015 0-.811-.257-1.477-.77-2-.513-.522-1.251-.784-2.212-.784h-4.65v5.599"/>
    <path d="M11.208 30.768c0-.789-.257-1.424-.77-1.904s-1.24-.72-2.18-.72h-4.361v5.247h4.361c.94 0 1.667-.24 2.18-.72.513-.48.77-1.114.77-1.904"/>
    <path d="M1.7 73.47l2.801-1.614c1.653-.951 3.2-.729 4.024.694l.011.018c.877 1.516.153 2.998-1.471 3.933l-.896.516 1.062 1.836-1.811 1.043-3.719-6.427zm4.519 1.658c.644-.372.845-.928.553-1.433l-.011-.019c-.318-.551-.881-.619-1.534-.243l-.85.49.983 1.699.859-.494z"/>
    <path d="M10.564 72.673l-.011-.018c-1.068-1.846-.421-4.214 1.596-5.375 2.017-1.161 4.366-.544 5.433 1.302l.01.019c1.068 1.845.421 4.214-1.596 5.375-2.017 1.162-4.365.544-5.433-1.302m5.191-2.99l-.011-.018c-.537-.928-1.686-1.343-2.685-.767-.989.569-1.196 1.741-.659 2.669l.011.019c.536.927 1.685 1.343 2.675.773.999-.575 1.205-1.747.669-2.675"/>
    <path d="M19.832 65.107l-1.961 1.129-.903-1.56 5.732-3.301.903 1.56-1.961 1.129 2.816 4.867-1.812 1.043-2.815-4.867"/>
    <path d="M24.429 60.379l5.257-3.028.876 1.515-3.464 1.995.562.972 3.138-1.806.813 1.405-3.137 1.807.59 1.02 3.51-2.022.877 1.515-5.303 3.054-3.719-6.427"/>
    <path d="M31.591 56.254l1.69-.974 4.655 1.849-1.966-3.397 1.792-1.032 3.719 6.427-1.587.914-4.831-1.918 2.04 3.526-1.792 1.032-3.719-6.428"/>
    <path d="M42.355 52.135l-1.961 1.129-.903-1.56 5.733-3.302.903 1.561-1.961 1.129 2.816 4.867-1.812 1.043-2.815-4.867"/>
    <path d="M46.99 47.385l1.82-1.049 3.719 6.427-1.821 1.048-3.718-6.427"/>
    <path d="M53.173 43.762l1.746-1.005 6.527 4.871-1.942 1.118-1.14-.873-2.521 1.452.197 1.416-1.905 1.097-.963-8.076zm3.866 3.025l-1.786-1.408.319 2.252 1.466-.844z"/>
    <path d="M59.298 40.296l3.718 6.428 4.976-2.866-.902-1.561-3.166 1.823-2.815-4.867-1.811 1.043"/>
  </g>
</svg>
