<svg width="33" height="32" viewBox="0 0 33 32" xmlns="http://www.w3.org/2000/svg">
  <path d="M16 32c10.052 0 16-7.304 16-16 0-3.236-1.403-6.39-3-9-2.791-4.286-7.238-7-13-7-8.623 0-17.708 7.141-16 16 2.258 8.678 6.224 16 16 16z" fill="#125688"/>
  <path d="M24.321 7.775c-.453-.453-.996-.68-1.629-.68h-13.383c-.633 0-1.176.227-1.629.68-.453.453-.68.996-.68 1.629v13.383c0 .633.226 1.176.68 1.629.453.453.996.68 1.629.68h13.383c.633 0 1.176-.227 1.629-.68.453-.453.68-.996.68-1.629v-13.383c0-.633-.226-1.176-.679-1.629zm-10.857 5.806c.707-.683 1.557-1.025 2.549-1.025 1 0 1.853.342 2.56 1.025.707.684 1.061 1.51 1.061 2.479 0 .969-.353 1.795-1.061 2.478-.707.684-1.56 1.026-2.56 1.026-.992 0-1.842-.342-2.549-1.026-.707-.683-1.061-1.51-1.061-2.478 0-.969.354-1.795 1.061-2.479zm9.498 8.725c0 .203-.071.373-.211.51-.141.137-.309.205-.504.205h-12.527c-.203 0-.373-.068-.51-.205-.137-.137-.205-.307-.205-.51v-7.594h1.652c-.156.492-.234 1.004-.234 1.535 0 1.5.547 2.779 1.641 3.838 1.094 1.058 2.41 1.588 3.949 1.588 1.016 0 1.953-.242 2.813-.727.859-.485 1.539-1.143 2.039-1.975.5-.832.75-1.74.75-2.725 0-.531-.078-1.043-.235-1.535h1.582v7.594zm0-10.465c0 .227-.078.418-.235.574-.156.156-.347.234-.574.234h-2.039c-.226 0-.418-.078-.574-.234-.156-.156-.234-.348-.234-.574v-1.933c0-.219.078-.408.234-.568.156-.16.348-.24.574-.24h2.039c.227 0 .418.08.574.24.156.16.235.35.235.568v1.933z" fill="#fff"/>
</svg>
