<svg width="33" height="32" viewBox="0 0 33 32" xmlns="http://www.w3.org/2000/svg">
  <path d="M17 32c10.052 0 16-7.304 16-16 0-3.236-1.403-6.39-3-9-2.791-4.286-7.238-7-13-7-8.623 0-17.708 7.141-16 16 2.258 8.678 6.224 16 16 16z" fill="#125688"/>
  <g fill="#fff">
    <path d="M17 6c-2.716 0-3.056.012-4.123.06-1.064.049-1.791.218-2.427.465-.658.256-1.215.597-1.771 1.153-.556.556-.898 1.114-1.153 1.771-.247.636-.416 1.363-.465 2.427-.049 1.067-.06 1.407-.06 4.123s.012 3.056.06 4.123c.049 1.064.218 1.791.465 2.427.256.658.597 1.215 1.153 1.771.556.556 1.114.898 1.771 1.153.636.247 1.363.416 2.427.465 1.067.049 1.407.06 4.123.06s3.056-.012 4.123-.06c1.064-.049 1.791-.218 2.427-.465.658-.256 1.215-.597 1.771-1.153.556-.556.898-1.114 1.153-1.771.247-.636.416-1.363.465-2.427.049-1.067.06-1.407.06-4.123s-.012-3.056-.06-4.123c-.049-1.064-.218-1.791-.465-2.427-.256-.658-.597-1.215-1.153-1.771-.556-.556-1.114-.898-1.771-1.153-.636-.247-1.363-.416-2.427-.465-1.067-.049-1.407-.06-4.123-.06zm0 2c2.606 0 2.914.01 3.943.057.951.043 1.468.202 1.812.336.455.177.781.388 1.122.73.341.341.553.667.73 1.122.134.344.293.861.336 1.812.047 1.029.057 1.338.057 3.943 0 2.606-.01 2.914-.057 3.943-.043.951-.202 1.468-.336 1.812-.177.455-.388.781-.73 1.122-.341.341-.667.553-1.122.73-.344.134-.861.293-1.812.336-1.029.047-1.337.057-3.943.057s-2.914-.01-3.943-.057c-.951-.043-1.468-.202-1.812-.336-.455-.177-.781-.388-1.122-.73-.341-.341-.553-.667-.73-1.122-.134-.344-.293-.861-.336-1.812-.047-1.029-.057-1.338-.057-3.943 0-2.606.01-2.914.057-3.943.043-.951.202-1.468.336-1.812.177-.455.388-.781.73-1.122.341-.341.667-.553 1.122-.73.344-.134.861-.293 1.812-.336 1.029-.047 1.338-.057 3.943-.057z"/>
    <path d="M17 19c-1.657 0-3-1.343-3-3s1.343-3 3-3 3 1.343 3 3-1.343 3-3 3zm0-8c-2.761 0-5 2.239-5 5s2.239 5 5 5 5-2.239 5-5-2.239-5-5-5z"/>
    <path d="M23 10c0 .552-.448 1-1 1s-1-.448-1-1 .448-1 1-1 1 .448 1 1"/>
  </g>
</svg>
