<svg width="160" height="165" viewBox="0 0 160 165" xmlns="http://www.w3.org/2000/svg">
  <defs>
    <linearGradient x1="50%" y1="100%" x2="50%" y2="0%" id="a">
      <stop stop-color="#FF4300" offset="0%"/>
      <stop stop-color="#FF8A00" offset="100%"/>
    </linearGradient>
  </defs>
  <g fill="none" fill-rule="evenodd">
    <path d="M26.1837 122.31112c-.0348-.50083-.06058-1.12882-.07733-1.88006-.01675-.75384-.02577-1.5531-.02577-2.40165 0-.84725-.00516-1.6945-.0129-2.54307-.009-.84726-.0116-1.62575-.0116-2.33548l-.02576-4.4374c0 .07006-.00515.01427-.01417-.16868-.00902-.18165-.01546-.43206-.02577-.75254-.00774-.31918-.00387-.6786.01288-1.07692.01675-.39702.04253-.7733.07732-1.1275.0348-.3555.0902-.65783.1688-.90954.07603-.25042.17525-.40222.2951-.45412.17137-.08564.3054-.13754.39945-.1557.09407-.01687.24484-.02595.451-.02595.24098 0 .4974-.02985.77316-.09083.27577-.0597.5322-.08953.77446-.08953.2384 0 .4845-.01427.7332-.04022.2487-.02595.49482-.02985.7345-.01168.3956.01687.8028.04282 1.22416.07785.42137.03372.81182.06876 1.1739.1025.60178.07005 1.14943.26468 1.64812.58386.49868.32048.94453.68896 1.34013 1.10416.41235.43207.76156.90695 1.04376 1.42724.2835.519.46776 1.0808.5541 1.68543 0 .07006.009.13104.02705.18164.01676.0532.03222.11288.05026.18295.01675.0506.0219.12844.01288.23224-.00773.1038-.01675.21668-.02577.33864-.00902.12067-.0206.24134-.03737.362-.01804.12197-.02706.2076-.02706.2608-.05154.50083-.192.9809-.42523 1.4389-.23196.45932-.5193.8836-.86337 1.27155-.34276.38925-.72547.73957-1.14555 1.05226-.42137.3101-.8479.5696-1.277.77848-.55023.2582-1.09143.44504-1.62233.55663-.53348.1129-1.02314.18685-1.47028.22058-.44715.03633-.8376.048-1.17262.04022-.33504-.00908-.57858-.0039-.7345.01168-.01675 0-.02577.12196-.02577.3646 0 .24262.00515.54883.0129.9199.009.3724.0219.7798.03864 1.21965.01675.44115.03093.86153.03866 1.25986.00773.39702.0219.74345.03866 1.03668.01675.29583.0348.47618.05283.54495 0 .03503.00387.11288.0116.23355.00773.12196.01288.24782.01288.37756 0 .12975-.00515.25042-.01288.362-.00773.1129-.0219.17776-.03866.19463-.0335.1557-.16364.26858-.38657.33734-.22292.07008-.48064.1051-.77186.1051-.2938 0-.58116-.03502-.86336-.1051-.28477-.06875-.4858-.15568-.6069-.25948zm4.04745-16.0629c-.24226 0-.4858.02206-.7358.06487-.24868.0441-.49352.0999-.73448.16996-.1031.27637-.16752.5709-.1933.881-.02576.3114-.03865.63188-.03865.96014 0 .32956.00387.65782.0129.9861.009.32955.01287.64095.01287.93548V112.9705c0 .13883.009.2582.02576.362.65332.08693 1.24478.0999 1.77826.04022.5322-.06098 1.01412-.17386 1.44322-.33864.4291-.16348.81954-.3672 1.17262-.60982.35178-.24133.68424-.49305.9922-.75124.55024-.48527.88012-1.04708.99352-1.68804.1108-.63966.05025-1.2365-.1817-1.79053-.23194-.55273-.62238-1.02502-1.1726-1.41296-.54895-.39056-1.2113-.58518-1.98315-.58518h-.67136c-.22293 0-.45487.00908-.69584.02595l-.02448.02595zM38.97686 122.10725c-.0348-.2608-.0567-.5631-.06443-.90954-.0103-.34512-.0103-.70063 0-1.06393.00773-.362.01546-.7175.02448-1.06264.00903-.34643.00517-.64874-.01158-.90954-.01804-.519-.03093-.9381-.03995-1.25857-.00902-.31918-.0129-.6228-.0129-.90824 0-.28546.00388-.58777.0129-.90825.00902-.3192.01417-.73827.01417-1.25727l.02578-2.46652c.01675-.9861.04767-1.97608.0902-2.96995.04252-.99517.13143-1.98645.2693-2.97124.22423-.07006.45488-.17386.69714-.3127.22293 0 .41493-.0039.57858-.01167.16365-.0091.33116.07265.50384.2465.08504.2582.12757.50992.12757.75255 0 1.41816-.0129 2.82723-.03737 4.22852-.02706 1.40128-.03995 2.80387-.03995 4.20515 0 1.1924.0103 2.3783.02577 3.55382.01675 1.17682.02706 2.36143.02706 3.55642 0 .27636-.03608.47877-.10308.60852-.0696.12975-.1688.2076-.29767.23484-.12756.02466-.27446.02466-.4381 0-.16366-.02724-.3299-.0571-.50256-.09212-.15334-.03373-.30926-.0558-.4639-.06487-.15462-.0078-.28348-.08174-.38528-.21928M50.80354 111.92167c.31055.45023.52188.99517.6327 1.63613.11082.63967.17525 1.30917.1933 2.0098.01803.70066.00386 1.3935-.03738 2.0773-.0451.68247-.07474 1.2832-.0915 1.8035l-.02576.02595c0 .362-.0129.7772-.03866 1.2456-.02577.46708-.03866.8213-.03866 1.06263-.24096.01816-.4729.048-.69712.09082-.22293.04282-.4536.06618-.69455.06618-.08504-.17387-.20617-.3127-.3608-.4165-.15463-.1025-.24097-.2582-.25772-.4671-.10308.03504-.19457.06618-.2706.09083-.07732.02596-.15463.0571-.23195.09213-.0773.03374-.17782.06877-.2951.1038-.1211.03373-.27574.07785-.46645.12845-.2384.0519-.4755.1038-.70615.1557-.23324.0519-.46905.07785-.71002.07785-.03478 0-.05024.00908-.05024.02595-.55152 0-1.08757-.0519-1.61074-.1557-.52703-.1038-1.01154-.3542-1.4574-.75254-.56697-.48396-.85046-1.09768-.85046-1.84243v-.44114c0-.4658.13787-.8823.41234-1.2456.27447-.3633.61466-.67468 1.018-.93418.40332-.2582.8363-.471 1.30276-.63447.4626-.16477.8917-.28155 1.2886-.3503.393-.07008.80278-.1051 1.22286-.1051s.82856-.03374 1.22416-.1038c-.01804-.27637-.02062-.56182-.01417-.85505.0103-.29453-.02963-.57998-.11468-.85635-.1031-.38016-.29637-.65393-.57986-.8174-.2835-.1648-.60178-.25173-.95356-.2608-.3518-.0078-.70486.03892-1.05665.14272-.35307.1038-.65718.24263-.9149.4165-.2925.18942-.55022.41-.77315.6604-.2242.25172-.4394.50603-.6443.76553-.0335 0-.09922-.03893-.19328-.11678-.09407-.07784-.19716-.16348-.30927-.2582-.1121-.096-.2152-.18683-.30926-.27376-.09536-.08563-.1585-.12845-.1933-.12845.30927-.81352.7899-1.4973 1.44323-2.05132.6533-.55273 1.35302-.9251 2.1004-1.11455.74738-.19073 1.49476-.17386 2.24215.0506.74738.22577 1.36977.70973 1.86716 1.4532zm-1.44193 5.0083c-.06828-.0506-.17266-.07265-.30925-.06487-.13788.00908-.2487-.0039-.33503-.03763-.4639 0-.8595.04282-1.1855.12845-.3273.08694-.7126.2076-1.15974.3646-.0348.01687-.0786.02984-.12886.03763-.05283.00908-.09535.03114-.12757.06617-.20746.08563-.4304.23225-.67135.43985-.23968.2089-.37885.43336-.41235.6747v.22056c0 .06098.01675.13494.05154.22058.08504.24264.3479.40223.78474.48008.4394.07784.90588.0999 1.40585.06487.4974-.03373.95226-.11158 1.3659-.23225.41235-.12196.62626-.2517.6443-.39054.0348-.29324.0554-.6228.0657-.9861.00646-.362.0116-.69156.0116-.9861v.00002zM55.46953 120.59637c-.05283-.19074-.12757-.38147-.23066-.5722-.10437-.18943-.20746-.37108-.31055-.54494-.13788-.22447-.3054-.55273-.50255-.9861-.19844-.43076-.41235-.90823-.6443-1.42723-.23194-.519-.46002-1.06783-.68295-1.6478-.22292-.5787-.4291-1.1327-.61852-1.6595-.18942-.52807-.34792-1.00814-.47678-1.4415-.13015-.43207-.21004-.7785-.24483-1.0367.08504 0 .24096-.02984.46388-.09082.22293-.06098.45487-.12197.69584-.18295.23968-.05968.46003-.11158.65718-.1557.19716-.0428.31442-.0467.34792-.01167.0348.01686.07732.11158.13015.28415.05025.17387.1018.3685.15334.58517.05156.2154.09794.4191.14176.60853.04123.19073.07216.32048.0902.39054.22292.881.53347 1.83335.92778 2.85318.3956 1.02112.8247 1.92028 1.2886 2.69877.58373-1.27933 1.1159-2.57293 1.59913-3.8782.48065-1.30657.9948-2.60017 1.54502-3.8808.13787-.06875.32214-.12455.5528-.16736.23323-.04412.46132-.0558.68553-.04023.22164.01818.42524.07008.60306.1557.18168.08695.29765.23356.3492.44116-.24097.7785-.53734 1.52714-.88913 2.24595-.35307.71752-.69197 1.4571-1.018 2.2187-.6185 1.48694-1.23317 2.98813-1.84138 4.501-.6121 1.51417-1.33628 2.96216-2.1803 4.34658-.1018.19073-.2487.45542-.43684.79147-.18942.33864-.3853.68378-.59275 1.0393-.20617.3542-.41234.67728-.6185.9731-.2062.29324-.3956.49175-.567.59685-.34405 0-.60563-.09212-.78603-.27247-.1804-.18295-.39045-.38536-.6314-.61112l-.25773-.64873c.4304-.38017.78604-.80834 1.06953-1.28322.28478-.47747.58888-.94717.9149-1.41556.08633-.12068.19715-.30622.33632-.55663.1353-.2517.2693-.5151.39816-.79277.13015-.27636.24484-.54494.3492-.80314.1031-.2608.17784-.4684.23067-.6228M98.98938 109.6155c-.34405-.69285-.77315-1.26763-1.2886-1.72565-.51542-.458-1.15972-.74865-1.93287-.8693-1.06437-.17388-1.9883-.0052-2.77046.5047-.7809.51122-1.43034 1.20667-1.94578 2.09026-.23967.4139-.4729.8291-.69583 1.2456-.22293.4139-.41235.84726-.56698 1.2962-.2049.60592-.34792 1.2806-.42524 2.02537-.0773.74346-.05153 1.47394.07733 2.19146.12886.7188.37498 1.37144.7345 1.9592.3608.58906.87623 1.0393 1.5463 1.3494.80666.36458 1.6713.49303 2.59136.39053.91875-.1038 1.7383-.39054 2.4599-.85634.17268-.1051.3956-.2647.67136-.48137.27318-.21538.5438-.44893.81053-.70064.26672-.2504.5077-.506.7216-.7642.2152-.2608.36467-.48527.451-.6747.30927.03373.5889.18164.8376.43984.24868.2608.49352.47618.73448.64875-.01675.2076-.03865.38145-.06443.51898-.02577.13883-.10566.28545-.24483.44245-.0683.22446-.1804.44893-.33503.6747-.15464.22446-.3273.43984-.51545.64873-.18942.2063-.38657.40223-.59146.58258-.2062.18164-.40463.34253-.59405.48007-.77316.55403-1.60172.97312-2.48698 1.25987-.88526.28415-1.77826.42298-2.68027.4139-.902-.0078-1.77825-.18165-2.62872-.519-.85047-.33735-1.61074-.86802-2.2808-1.5946-.24098-.24264-.43298-.48398-.5786-.7279-.1469-.24134-.28863-.50992-.4265-.80444-.0683-.13754-.1585-.32438-.2706-.55792-.11083-.23224-.21005-.47877-.2951-.73956-.08634-.2582-.15592-.50602-.20618-.73827-.05283-.23485-.06056-.4204-.02706-.55922-.05154-.1557-.09406-.3581-.12886-.60852-.0348-.25172-.06056-.4723-.0773-.66302-.05155-.84725.01416-1.7516.19328-2.71044.1804-.96144.46776-1.89433.86335-2.80387.39432-.90825.88528-1.74254 1.469-2.50416.58374-.76033 1.24607-1.37404 1.98444-1.84244.51543-.32826 1.01283-.6137 1.49476-.85504.48065-.24263.96644-.4204 1.4561-.53327.48967-.1116.99222-.1596 1.50766-.14143.51544.01686 1.08242.12066 1.70094.3101.34405.1038.65203.2037.92778.29842.27576.096.55796.2556.85047.48006.44715.34772.83372.7746 1.15974 1.2845.3273.51122.48965 1.05098.48965 1.62187-.13788.12197-.27447.26858-.41235.44115-.13788.17386-.27447.34643-.41235.519-.1366.17386-.27447.33734-.41235.49304s-.2822.27766-.43812.3646M110.08 111.92167c.30926.45023.5206.99517.6314 1.63613.11212.63967.17526 1.30917.1933 2.0098.01804.70066.00386 1.3935-.03737 2.0773-.0438.68247-.07474 1.2832-.0902 1.8035l-.02706.02595c0 .362-.0129.7772-.03866 1.2456-.02576.46708-.03865.8213-.03865 1.06263-.24096.01816-.4729.048-.69713.09082-.22292.04282-.45358.06618-.69455.06618-.08504-.17387-.20617-.3127-.3608-.4165-.15463-.1025-.24097-.2582-.25772-.4671-.1031.03504-.1933.06618-.2706.09083-.07732.02596-.15463.0571-.23195.09213-.07603.03374-.17654.06877-.2951.1038-.12112.03373-.27575.07785-.46646.12845-.2384.0519-.4755.1038-.70743.1557-.23194.0519-.46775.07785-.70872.07785-.0348 0-.05025.00908-.05025.02595-.55152 0-1.08757-.0519-1.61074-.1557-.52576-.1038-1.01027-.3542-1.4574-.75254-.567-.48396-.85048-1.09768-.85048-1.84243v-.44114c0-.4658.13788-.8823.41235-1.2456.27447-.3633.61466-.67468 1.018-.93418.40332-.2582.83757-.471 1.30275-.63447.4626-.16477.8917-.28155 1.2886-.3503.393-.07008.8028-.1051 1.22287-.1051.42007 0 .82855-.03374 1.22415-.1038-.01675-.27637-.02062-.56182-.0129-.85505.00903-.29453-.0309-.57998-.11596-.85635-.1031-.38016-.2964-.65393-.57988-.8174-.2835-.1648-.60048-.25173-.95355-.2608-.3518-.0078-.70486.03892-1.05665.14272-.35307.1038-.65718.24263-.9149.4165-.2925.18942-.55023.41-.77315.6604-.22422.25172-.43812.50603-.6443.76553-.0335 0-.09922-.03893-.1933-.11678-.09405-.07784-.19714-.16348-.30796-.2582-.11338-.096-.21647-.18683-.31054-.27376-.09535-.08563-.1585-.12845-.1933-.12845.30927-.81352.78992-1.4973 1.44323-2.05132.6533-.55273 1.353-.9251 2.1004-1.11455.74738-.19073 1.49476-.17386 2.24214.0506.7474.22577 1.36978.70973 1.86846 1.4532zm-1.44322 5.0083c-.0683-.0506-.17138-.07265-.30926-.06487-.13788.00908-.2487-.0039-.33504-.03763-.4639 0-.8595.04282-1.1855.12845-.326.08694-.7126.2076-1.15973.3646-.0348.01687-.07732.02984-.12886.03763-.05284.00908-.09537.03114-.12758.06617-.20618.08563-.4304.23225-.67136.43985-.23967.2089-.37884.43336-.41235.6747v.22056c0 .06098.01677.13494.05156.22058.08504.24264.34792.40223.78475.48008.43942.07784.90718.0999 1.40586.06487.4974-.03373.95356-.11158 1.3659-.23225.41236-.12196.62626-.2517.6443-.39054.0348-.29324.0554-.6228.06443-.9861.00772-.362.01288-.69156.01288-.9861v.00002zM120.90416 112.4137c-.1366.01815-.26674.02205-.3853.01426-.12112-.00908-.24224-.01427-.36208-.01427-.0335-.01688-.09922-.02596-.192-.02596-.09536 0-.1598.00908-.19458.02595-.4639.12195-.893.31268-1.2886.57088-.3943.2595-.75253.55922-1.06952.89527-.31828.33735-.5979.69286-.83758 1.06524-.24097.37107-.43812.7214-.59275 1.05095 0 .29324.00386.68248.01417 1.16774.00773.48396.0116.9809.0116 1.4908 0 .51122-.00902.99648-.02577 1.4545-.01676.458-.05155.8161-.1031 1.0769-.0335.1544-.14947.2634-.3479.32438-.19717.05968-.41623.09342-.6572.1025-.24096.00908-.48064.0052-.7216-.01168-.23968-.01817-.42137-.03503-.5412-.0532 0-1.67765.01287-3.34233.03865-4.99533.02577-1.6517.03865-3.31637.03865-4.99532 0-.18944.00902-.38406.02578-.58387.01675-.19852.0348-.40222.05154-.60982.15463 0 .34405-.01687.56698-.0519.22292-.03374.40333-.03374.5412 0 .20618.0519.39045.14402.5541.27247.16236.12975.32215.34254.47678.63577.05154.22576.0773.4593.0773.70194.00002.24133.00903.47488.0258.69935h.02576c.23967-.22448.49352-.4749.76026-.75256.26673-.27636.58888-.52288.96644-.73827.37756-.21668.826-.37627 1.34013-.48136.51544-.1038 1.14298-.0947 1.88135.02725.08504.06877.13788.18554.15463.35032.01676.1635.01418.33605-.01288.5177-.02577.18295-.06056.3555-.1031.519-.0425.16478-.08117.28155-.11596.35032M129.8457 120.31626c-.0683.07007-.17268.16478-.30927.28545-.13788.12197-.2487.2076-.33503.2595-.96258.58907-1.9754.95625-3.04108 1.10287-1.06566.1479-2.05272.0519-2.96376-.28545-.91103-.33734-1.66228-.929-2.25503-1.77626-.59275-.84855-.88784-1.97218-.88784-3.37346 0-.76163.12756-1.48044.38528-2.15513.259-.6747.61852-1.30527 1.08113-1.89433.46648-.58777 1.04505-1.07692 1.7409-1.46487.69583-.39054 1.41358-.6228 2.15194-.70194.73836-.07785 1.44837.01817 2.12617.28545.6791.26858 1.24093.75773 1.68807 1.46746.17138.27636.30926.57478.41235.89526.10308.31918.16365.64356.1817.97312.01416.17257.0322.362.05024.5709.01675.2076.00902.39702-.02577.5696-.08506.38145-.18814.73567-.30927 1.06393-.05154.13883-.20618.2556-.4626.35032-.259.09602-.5412.16997-.85047.22058-.31056.0519-.6121.09082-.9046.11807-.29122.02595-.4974.0467-.61723.06357-.68682.07006-1.37106.11677-2.04886.14272-.6778.02595-1.36204.048-2.04886.06487l-.15462.1051c-.05154.18942-.05154.38015 0 .5696.05155.4502.2139.8148.48967 1.08987.27575.27767.59275.49305.95355.64875.3608.1557.7474.2647 1.15973.32437.41235.06097.7899.0908 1.13396.0908.27446-.03372.5193-.07654.73578-.12844.2139-.0519.43297-.14402.65718-.27247.22164-.13106.46776-.3127.7332-.54625.26546-.23355.5876-.54884.96645-.94717.03352-.01557.11212.0519.23325.2076.11855.157.24354.33346.3724.53327.12886.1985.2487.38795.3608.5696.1121.18294.17654.29063.1933.32437-.0335.1051-.12113.22057-.25772.35162-.13788.12975-.2487.22836-.33504.29712zm-2.0102-5.24185c.067-.0519.11596-.12065.14173-.2076.02578-.08562.03866-.17126.03866-.2582.03478-.22575.01674-.48914-.05284-.79275-.067-.30232-.16236-.54884-.2822-.73957-.326-.55273-.76413-.8823-1.31436-.9848-.55023-.1038-1.10304-.04022-1.66228.19463-.55925.23226-1.0515.60075-1.48188 1.10287-.4291.50083-.6791 1.0899-.7474 1.7646.08506.1038.19846.17255.33376.2076.03608.01685.17267.02075.41364.01166.24096-.00778.53734-.02076.88912-.03762.3505-.01816.7332-.04022 1.14685-.06617.41236-.02595.79894-.0467 1.15974-.06357.35952-.01817.67393-.04023.94196-.06618.26545-.02594.42524-.0467.4755-.06487zM78.01987 119.26378c-.51544.4152-1.06438.79146-1.6481 1.1301-.58503.33606-1.19067.60853-1.8182.81613-.62756.2076-1.26283.34644-1.90713.4152-.6443.07007-1.26668.03504-1.86716-.1038-.24226-.0519-.53348-.1453-.87753-.28414-.34277-.13884-.6108-.30362-.79893-.49435-.1031-.01556-.21004-.07265-.32215-.16866-.11082-.09472-.22808-.2024-.34792-.32437-.11984-.11937-.22808-.24653-.32086-.37628-.09665-.12846-.17654-.24653-.24613-.35033-.4291-.6747-.6443-1.42593-.6443-2.25762 0-.6734.05155-1.26635.15464-1.77756.1031-.50993.25515-.97313.451-1.38703.19846-.4165.4433-.80963.7345-1.182.29252-.3711.62755-.75644 1.0051-1.15477.1714-.18944.39947-.42817.68425-.71362.2822-.28545.49353-.48786.6314-.60982-.07086-.17257-.13014-.29323-.18168-.3633-.1701-.22446-.32215-.43206-.44972-.6215-.13014-.19073-.2371-.4152-.32214-.67598-.1907-.48397-.27575-.95106-.2577-1.4013.01545-.4139.067-.80443.15462-1.16643.08505-.3646.23066-.6669.43683-.90954.4291-.519.94196-.89915 1.53342-1.14178.59404-.24133 1.2074-.362 1.8427-.362.63655 0 1.2628.11288 1.88133.33605.6198.22576 1.1855.54494 1.70223.96144.1353.12067.2474.27637.33503.4671.08505.18944.15334.38406.20618.58258.05025.1998.08504.38146.10308.54624.01547.16348.01547.27247 0 .32437-.08762.44892-.23323.88098-.43812 1.29748-.20617.4139-.5077.74346-.9033.9848l-.02577.02594c-.15463.1038-.33503.22057-.5412.35032-.20618.12975-.42138.2647-.6443.40222-.22422.13883-.44715.27766-.66878.4152-.22422.13883-.42266.26858-.59404.39054.18814.24133.46777.60074.8376 1.07692.36982.47488.80278 1.01074 1.30147 1.6076.49868.59683 1.03474 1.2378 1.61074 1.92027.576.68376 1.15458 1.34937 1.7396 1.99812.58373.64874 1.15973 1.25467 1.728 1.81648.56698.5631 1.08113 1.0341 1.5463 1.41556-.03607.1025-.14302.2024-.32214.29842-.1817.09472-.3827.18944-.60692.28415-.22422.09602-.44328.17776-.65718.24652-.2152.07007-.36467.12197-.44972.1557-.53348-.38016-1.027-.78238-1.48317-1.20666-.45487-.423-.8801-.8343-1.2757-1.23262zm-5.84892-7.05704c-.34534.32827-.6198.63058-.82598.90694-.20618.27767-.35952.48526-.4626.6228-.19072.24263-.37885.5631-.567.96014-.1907.39833-.34018.81742-.45228 1.25856-.11083.44245-.1714.8823-.18042 1.32344-.00902.44244.08247.8187.2706 1.1288.24097.4152.54637.71882.9149.90955.36854.18944.76414.28934 1.1855.29843.42138.00778.85435-.048 1.30278-.16998.44585-.12066.87108-.28025 1.2744-.47877.40463-.1998.77446-.42038 1.1082-.66302.33503-.24133.59662-.47487.78604-.70064-.08633-.08564-.12886-.13365-.12886-.14273 0-.0078.05155.03114.15463.11677-.54894-.65653-.97417-1.16774-1.2757-1.52974-.30024-.3646-.53734-.64096-.70873-.8317-.1701-.18942-.3041-.34122-.39946-.4541-.09278-.1116-.2139-.2543-.3608-.42818-.14562-.17256-.3389-.4191-.57987-.73956-.23967-.3192-.59274-.7824-1.05535-1.38702zm.69455-6.359c-.12112.1038-.24096.18685-.3595.24783-.12114.0597-.23196.1596-.33505.29843-.17396.2063-.28993.45282-.3492.73827-.05928.28674-.07345.5709-.03866.85763.03607.28415.11596.55663.24482.81742.12886.2582.31442.4658.5541.6215.56826-.22447 1.10947-.5177 1.6249-.8823.27448-.18943.52704-.42297.76027-.70064.23065-.27636.34663-.57868.34663-.90694 0-.50213-.18427-.85764-.5528-1.06524-.36984-.2063-.8041-.27636-1.3015-.2063-.0876.01687-.18683.04282-.29765.07785-.1121.03503-.21133.06877-.29638.1025z" fill="#000"/>
    <path d="M122.9594 67.42784s-.22422-.41-.64172-1.17812c-.42266-.73048-1.0167-1.99813-1.83624-3.18663-.40848-.628-.82212-1.32604-1.33498-2.0734-.5425-.74475-1.1288-1.5492-1.75506-2.40813-.64816-.84077-1.4007-1.68543-2.15324-2.60146-.78346-.89007-1.67645-1.76198-2.5527-2.71434-.95097-.8823-1.93288-1.8074-2.9908-2.70785-1.1185-.83428-2.17386-1.81258-3.41607-2.61184-2.35684-1.78015-5.1299-3.1957-7.97896-4.61646-2.92123-1.28062-6.019-2.4198-9.27656-3.1425-3.2524-.70066-6.60918-1.26766-10.00462-1.2521l-1.10948-.0415-1.38652.05968c-.90073.0571-1.90325.03762-2.71635.12326l-2.38646.2569c-.78604.0597-1.6365.27507-2.44832.40092-3.26916.60723-6.4378 1.51417-9.38223 2.71565-2.96763 1.15347-5.69043 2.63-8.1787 4.1805-.61594.40094-1.22416.79537-1.82335 1.18592-.57085.42817-1.13396.84985-1.68805 1.26505-1.13783.79795-2.1249 1.7075-3.12097 2.534-.98448.83687-1.82722 1.749-2.69058 2.55864-.8028.86932-1.56564 1.69582-2.2821 2.47172-1.33626 1.63743-2.5076 3.08024-3.35806 4.35567-.9149 1.2339-1.5128 2.28486-1.95996 2.97902-.4407.70194-.6765 1.0769-.6765 1.0769l-.11727.18555c-.81954 1.30657-2.53594 1.69582-3.83484.87062-1.1752-.74866-1.603-2.23688-1.06567-3.48117 0 0 .19458-.45153.55925-1.2988.38015-.84076.85306-2.12657 1.71126-3.62906.42266-.75384.826-1.63483 1.39297-2.51323.56053-.8797 1.15973-1.84373 1.83753-2.848.72676-.96792 1.47414-2.02277 2.31946-3.0919.90717-1.01204 1.80532-2.13956 2.85938-3.2022 1.06953-1.04448 2.12875-2.20573 3.39028-3.22166.61853-.5203 1.23834-1.06654 1.88908-1.59072.67393-.49564 1.35688-1.00166 2.04886-1.51288.68424-.52807 1.41487-1.00555 2.1674-1.47264.75254-.4658 1.49348-.977 2.28468-1.41686 1.60687-.83948 3.22147-1.7581 4.97138-2.46912 1.70738-.81093 3.53203-1.40777 5.3631-2.0643 1.87362-.50343 3.75754-1.09897 5.7175-1.41426.98705-.16868 1.92128-.4087 2.96504-.5125 1.03216-.1168 2.0669-.23226 3.10292-.34904 1.02186-.0999 1.87233-.1012 2.82073-.13883l1.3878-.04152.25257-.00258.09536.0039.18813.00648.37627.01687.75383.03114c4.02684.048 8.02276.74087 11.87178 1.64652 3.8413.99258 7.46997 2.45744 10.85768 4.09487.82985.44243 1.64553.89915 2.44832 1.35586l1.1984.68248 1.13653.75514c.75124.50213 1.49347 1.00036 2.22797 1.4908.69713.54236 1.38652 1.07693 2.0669 1.6037 1.39168 1.01205 2.56687 2.21612 3.76655 3.29044 1.14813 1.134 2.2022 2.28487 3.21246 3.38384.93552 1.16645 1.87748 2.24466 2.6648 3.35142.76543 1.1262 1.52312 2.1681 2.16484 3.19052.60564 1.04448 1.1739 2.02148 1.69836 2.92454.4961.93548.90717 1.84632 1.29633 2.6378.3956.80313.7216 1.51545.91876 2.09803.2242.59295.41363 1.09897.56826 1.50768.30926.82.4729 1.25726.4729 1.25726.52705 1.3935-.1675 2.9544-1.55403 3.48377-1.26797.48526-2.67382-.06228-3.30523-1.22743zm-9.95436 60.15413c-.51415-.68118-1.4793-.81093-2.15582-.29193l-.10437.08044c-1.1623.89397-2.32977 1.7633-3.46245 2.66374l-3.61062 2.39516-3.75882 2.09415s-2.51404 1.11454-3.8851 1.78405c-1.37107.6695-1.4922 2.4691-1.4922 2.4691-.009-.11416-.0116.02856-.01546.08176l-.01804.22316-.04252.4671-.11726.95625c-.0902.63966-.1804 1.28192-.3067 1.9177-.24095 1.27282-.55537 2.5275-.94968 3.74064-.79892 2.4172-1.8646 4.6904-3.29363 6.57177-.70486.94976-1.52312 1.76718-2.40194 2.4782-.87495.71232-1.81304 1.3351-2.84778 1.78275-1.02314.4619-2.10814.82-3.26014 1.01593-.585.13234-1.1172.16867-1.65325.23095-.23452.04152-.61595.04412-.96.0545l-1.04762.03633-.78733-.03114c-.29895-.01818-.60822-.0026-.89815-.04932-.58373-.07266-1.18293-.109-1.74475-.24392-1.14942-.19333-2.2254-.5657-3.24596-1.02242-1.03087-.44634-1.94964-1.07952-2.82717-1.77497-.8698-.70843-1.6713-1.53103-2.362-2.4795-1.39037-1.88525-2.44315-4.14677-3.2047-6.5653-.375-1.21184-.67137-2.4665-.8917-3.73675-.1134-.63447-.20748-1.27413-.29124-1.9112l-.10308-.95236-.0348-.4645-.01546-.22316c-.00516-.0545-.00516-.18814-.0129-.09213 0 0 .058-1.8554-1.57594-2.60795-1.63265-.75384-3.63383-1.67635-3.63383-1.67635l-3.5243-1.94753c-1.09143-.73438-2.2125-1.43372-3.33358-2.15902l-3.38255-2.54697c-.72032-.54364-1.74732-.48137-2.3942.18295-.70614.724-.69712 1.88655.0232 2.59757l3.01015 2.98292c1.14426.94716 2.2911 1.9125 3.4676 2.84928l3.65444 2.49766 2.30785 1.2832.02577.74477c.04253.76294.09536 1.52197.19587 2.2758.18426 1.51028.45873 3.01407.83886 4.50878.74996 2.9868 1.96897 5.95287 3.84516 8.63478 1.85685 2.67412 4.47398 5.02517 7.5331 6.41997 1.51667.69934 3.11065 1.2352 4.7098 1.52325.8015.18684 1.59914.253 2.39806.35032.40204.0584.79506.0506 1.19195.07396l.59404.02205.29766.0117.14948.00518.07346.0026.18942-.0039 1.04505-.04022c.35307-.01816.67135-.02076 1.12752-.08044.85175-.09472 1.71124-.19203 2.48826-.37627 1.5953-.3075 3.18154-.84597 4.68662-1.56088 3.03978-1.41037 5.635-3.74974 7.47898-6.41478 1.8517-2.67413 3.0939-5.61294 3.84644-8.58808.384-1.48822.65976-2.98552.84918-4.4893.09922-.75126.16623-1.5077.2139-2.26542l.03093-.85375 2.61584-1.47784 3.84-2.69617c1.20354-.99907 2.38646-2.0163 3.55908-3.02834 1.10175-1.09898 2.1674-2.2304 3.23823-3.33714.52704-.54235.59276-1.4026.12114-2.0215zm-45.20376 12.801c-.0696.0636-.07732.17258-.01418.24394l.08634.09862s.30024.34254.8479.80963c.54764.4658 1.33755 1.0873 2.3156 1.64392.49996.28026.98963.62798 1.6133.83818.63013.2076 1.3092.4074 2.02438.567.71388.1609 1.46384.3114 2.23055.40092l.57858.07266.28993.03503.3853-.0026 1.05663-.00907c.71132-.0506 1.38267-.0623 2.11717-.19204.76413-.13235 1.50894-.3088 2.21895-.50862 1.43936-.3659 2.61455-1.02242 3.63254-1.61926.51286-.2569.94325-.64485 1.32725-.94717.3853-.29062.6997-.6124.9613-.86022.518-.50602.78088-.86672.78088-.86672l.07345-.0986c.02706-.03894.03995-.08954.02964-.14014-.01933-.09472-.1134-.1557-.20618-.13624 0 0-.34535.07266-.94454.19982-.30153.06357-.66492.14012-1.08242.22835-.4188.07785-.88397.2089-1.40327.28286-1.0399.14143-2.24086.42947-3.54105.5177-.64945.061-1.3221.12327-2.00376.18814-.68424.0441-1.39426.04022-2.09654.06358-.71388.03243-1.39168.08044-2.07592.02465-.68424-.02984-1.35688-.0597-2.0089-.08823-.6546-.02725-1.28473-.0545-1.88264-.08044-.5992-.03114-1.1636-.1635-1.68548-.23096-2.0901-.3049-3.4895-.47618-3.4895-.47618-.0464-.0052-.09536.0091-.1353.04152z" fill="#000"/>
    <path d="M36.37777 139.89513l-.84145-.63577c-.23323-.17127-.43812-.34643-.66104-.53975l-2.27437-1.92158-2.0656-1.93066c-.56053-.50342-1.05278-1.01463-1.5115-1.496-.35438-.37238-.84275-.58906-1.35432-.59814-.52317-.03503-1.00897.18294-1.38137.54235l-1.58754 1.53752c-.37884.36718-.56826.90045-.5657 1.43112.0013.53067.24227 1.06264.6237 1.42983.50125.48137 1.0721 1.0289 1.73186 1.57645l2.28982 1.9657 2.8362 2.19534c.19843.1557.39816.3088.5979.44245l.87753.6046c.33374.23097.71388.34125 1.09143.34125.60177 0 1.19453-.28155 1.5708-.80963l1.03087-1.4441c.61337-.86024.43296-2.05522-.4072-2.691zm-25.9097-42.00876c-.06313-.27637-.1018-.52938-.14302-.81353l-.45616-2.8441-.2848-2.77532c-.09406-.7214-.125-1.40388-.15205-1.9618-.0232-.5229-.25643-1.01463-.6443-1.36366-.38657-.34772-.90072-.5203-1.41873-.48785l-5.56413.38796c-.5322.03633-1.02444.29453-1.36334.71102-.3376.4152-.48838.95365-.4188 1.48692l.02964.22317c.08892.6721.1907 1.42853.35694 2.23557l.56312 2.97903.86206 3.63686c.06443.27507.12757.54235.19845.7798l.31312 1.06393c.24998.84207 1.0167 1.3922 1.853 1.3922.15977 0 .32342-.01946.4858-.06227l4.617-1.2028c1.0064-.26208 1.6275-1.2806 1.40328-2.30303l-.2371-1.0821zm47.3016-94.7218c-.13015-.5177-.46776-.95884-.93166-1.21964-.46388-.2595-1.0154-.3153-1.51923-.157l-.3157.1012c-.70616.22188-1.5025.4762-2.30272.79018l-2.96763 1.12104-3.66604 1.6011c-.27833.12067-.54894.24004-.7577.35032l-.97803.49435c-.93165.4723-1.32338 1.6037-.88526 2.55606l5.4752 11.91093c.32603.70842 1.02444 1.1301 1.75507 1.1301.25257 0 .5077-.0506.75254-.1557l.99996-.42557c.2706-.12066.49353-.19722.75382-.28285l2.54626-.90565 2.36198-.71232c.57858-.19072 1.13912-.33085 1.6481-.4554.50256-.12197.93553-.44245 1.20227-.8875.26672-.44632.34533-.9809.21647-1.4856l-3.3877-13.36803zm95.15468 43.0766c.17782-.48526.15592-1.02242-.05928-1.49212l-.19586-.42687c-.30925-.6708-.65588-1.43113-1.08112-2.21092l-1.51925-2.8921-2.05143-3.45002c-.15464-.2595-.3054-.5099-.43426-.70064l-.52188-.79277c-.28993-.43725-.74094-.73827-1.2538-.83558-.51028-.096-1.04247.01687-1.4677.32048l-12.09214 8.55304c-.42652.30232-.71516.76552-.79635 1.28322-.08375.51898.0451 1.04965.35566 1.47004l.55538.75254c.1817.24004.3054.43207.4523.66042l1.44323 2.15383 1.29245 2.17978c.35823.5696.65203 1.13012.91232 1.63095.34406.66302 1.0154 1.04578 1.71512 1.04578.2693 0 .5425-.0584.80537-.17905l12.93486-5.97493c.46647-.2154.82856-.60982 1.0064-1.09508zm6.59887 41.77002c-.3389-.4204-.835-.6799-1.36977-.71752l-11.70813-.81223c-1.04892-.08044-1.98443.73178-2.06046 1.8009l-.18298 2.57163-.30926 2.62093c-.04768.58-.15592 1.1911-.2603 1.78535l-.0232.13364c-.05154.29193-.1018.58127-.14174.86023-.1585 1.06524-.29766 1.82816-.4394 2.40165-.24742 1.01074.3376 2.03835 1.32724 2.33418l10.39635 3.0958c.18298.0545.36725.08045.54894.08045.8247 0 1.58755-.53585 1.84527-1.36754l.12886-.4165c.23968-.73567.49353-1.6582.7912-2.8869l.2255-.89527c.2036-.79927.41493-1.62577.57342-2.55866l.65332-3.57588.4162-2.95567c.07604-.53588-.07344-1.07823-.41105-1.4986zm-30.7767 44.42856c-.3711-.38665-.86206-.615-1.41873-.59295-.53607.0091-1.04248.24005-1.4007.63838l-.56055.6202c-.1933.22187-.37627.40222-.57858.60333l-1.9973 2.0254-2.06047 1.87485c-.56956.53846-1.15715 1.00945-1.72284 1.46357-.78862.628-.96516 1.7594-.40978 2.60276l2.6197 3.96642c.37112.5618.98578.86672 1.61075.86672.3492 0 .6997-.0934 1.0167-.29193l.24096-.14922c.61078-.38146 1.30533-.81223 2.01664-1.33123l2.5308-1.76717 2.9251-2.28228c.21647-.16868.4278-.33476.60434-.49045l.643-.55014c.4072-.34772.65203-.84984.6791-1.3883.02576-.53716-.1701-1.06135-.54122-1.448l-4.19694-4.36994zM112.14948 4.7073l-.1469-.0649c-.74352-.33474-1.58755-.7149-2.52177-1.05874l-3.07328-1.14698-3.84258-1.21315c-.2809-.08953-.55925-.17646-.78862-.22836l-1.00768-.2595C99.74808.471 98.69917 1.0873 98.4247 2.1175l-3.98175 14.925c-.27447 1.0289.32215 2.08896 1.34014 2.3783l.98705.28025c.3157.08045.5322.1609.79377.2569l2.4625.85635c.54507.23095 1.0966.44893 1.72413.69675.76542.3023 1.49477.58906 2.10813.86932.259.11677.5296.17386.79635.17386.7216 0 1.4136-.41 1.74475-1.10806l6.70583-14.12185c.2255-.47358.2513-1.01853.07088-1.51157-.1804-.49175-.5515-.89008-1.027-1.10546zM22.81408 43.0649c.0773.5177-.0567 1.04577-.36984 1.46226-.31828.42428-.6881.9264-1.04633 1.48822l-1.42002 2.1175-1.47286 2.4237c-.15463.24524-.28864.46062-.4278.73958l-.51416.9809c-.34663.65783-1.0154 1.038-1.70996 1.038-.27833 0-.56054-.061-.82856-.18944l-8.2457-3.94047c-.9368-.44634-1.3556-1.5557-.95226-2.51583l.43683-1.04318c.08248-.2102.19588-.44634.31314-.68378l1.69965-3.48765 1.54114-2.7818c.44457-.8291.92006-1.58165 1.30277-2.18628.28607-.45412.7693-.80703 1.29246-.90694.5193-.1051 1.08886-.01945 1.52054.29454l8.10266 5.90227c.42137.30622.70228.77072.7783 1.28842zm-3.514 49.8806c.60048-.0454 2.24215 1.37924 4.91984 1.1911 1.43807-.0999 3.14545-.65133 3.14545-2.6754-.0013-3.99887-9.67216-1.74902-9.67087-9.6585 0-4.959 4.01396-7.2335 7.92998-7.4982 3.54878-.24132 6.02674.86284 6.02674 1.97478 0 .91084-1.0386 2.9985-1.8414 3.0491-.43554.02725-1.47285-.75254-3.7163-.60203-2.61067.17775-3.11194 1.43242-3.11194 2.20702-.00257 3.82758 9.67345 1.6452 9.67474 9.59102 0 5.59996-3.9186 7.71876-7.5679 7.97177-5.08606.3529-7.86297-1.23782-7.86297-2.3861 0-1.04577 1.37235-3.11137 2.07463-3.16457zM37.2089 75.22446c0-.94457.40334-1.37145 1.34015-1.41945 2.34394-.11937 4.69047-.22836 7.0357-.32567 2.9818-.12975 7.9751.58387 7.97638 7.09855-.0013 6.5043-5.83216 7.58122-7.64134 7.66296-1.18294.0493-2.36716.1012-3.55137.1557V96.223c0 .70842-.60306 1.10675-2.0102 1.17422-.38014.01946-.7577.03762-1.13783.0558-1.40714.07135-2.0115-.266-2.0115-.97572V75.22445zm8.14133 8.58807c1.2744-.0532 2.91608-.6228 2.91608-3.0517 0-2.4289-1.64166-2.90637-2.91607-2.85187-.9935.04152-1.9883.08563-2.9818.13105v5.90356c.9935-.0454 1.9883-.08952 2.9818-.13104zm10.4569 11.64236c2.45735-7.29967 4.91598-14.58766 7.3746-21.86397.20232-.54364.9394-.7253 1.911-.74215.58115-.0078 1.1623-.01687 1.74346-.02466.97287-.01298 1.70995.1479 1.91097.68507 2.45863 7.20235 4.91726 14.41898 7.37718 21.6447.067.23743.09922.43984.09922.6085 0 .471-.50255.74088-1.67646.74477-.48965.0026-.9819.0052-1.47413.00778-.9716.0052-1.70996-.1583-1.87748-.69675-.44844-1.36755-.893-2.7351-1.34143-4.10265-2.63775.02465-5.2755.06357-7.91324.11677-.44585 1.38052-.893 2.76234-1.34142 4.14417-.1675.5099-.73706.724-1.54115.74346-.44714.01038-.89428.02205-1.34013.03373-1.40972.03633-2.04628-.21538-2.04628-.68767 0-.16738.0683-.3724.1353-.61112zm12.605-8.17807c-.63656-1.99423-1.27312-3.98717-1.91098-5.9801-.1688-.43597-.50255-2.15254-.50255-2.15254-.0451 0-.0902.0013-.134.0026 0 0-.30154 1.5907-.50256 2.1668-.65976 2.0124-1.31952 4.0248-1.978 6.0385 1.67518-.03113 3.35164-.0558 5.0281-.07525zM80.21305 74.1761c0-.94457.40333-1.3481 1.34142-1.3429 2.1803.01297 4.3593.03503 6.5383.06617 5.79995.08693 8.3488 2.46393 8.3488 6.5082 0 2.59757-1.60946 4.4439-3.92248 5.2743v.13492c.83628.35422 1.84396 1.69193 2.41352 3.1568.9832 2.49636 1.9664 4.99532 2.94958 7.49688.1018.27117.16752.47617.16752.64485 0 .4048-.63657.65653-2.0115.6215-.45744-.01168-.91618-.02206-1.37363-.03244-.9716-.02206-1.74476-.2063-1.94578-.74995-.8814-2.2122-1.76408-4.42183-2.64805-6.62886-.67007-1.35976-1.20613-2.04484-3.38513-2.07338-.43555-.0052-.87238-.01038-1.30792-.01557v8.23125c0 .70973-.60435 1.07173-2.01278 1.06135-.38013-.0039-.75898-.0065-1.1391-.0091-1.40844-.00907-2.0128-.38145-2.0128-1.08988V74.17608zm8.35006 8.61402c1.37494.02076 2.58106-1.2378 2.58106-2.85837 0-1.5505-1.0734-2.5833-2.81686-2.60925-.9832-.01557-1.9651-.02724-2.94958-.03762v5.46502c1.0618.01167 2.1236.02465 3.1854.04022zm13.77505-8.54136c0-.70713.60435-1.06005 2.0115-1.00945.39172.01297.78216.02854 1.1739.0428 1.40585.0532 2.0102.44894 2.0102 1.15737v9.0409c.0438.01426.0902.02594.1353.0402 1.9432-3.0945 3.8851-6.17992 5.8283-9.25756.3028-.49174 1.03988-.59165 2.01148-.54234.52317.02595 1.0489.0532 1.57208.08044 1.30793.07007 1.8762.3049 1.8762.60852 0 .16868-.06572.40093-.26803.69286-2.15323 3.2113-4.30776 6.43165-6.46486 9.6598 2.44576 3.89246 4.8928 7.7953 7.33596 11.71112.20102.314.26932.55403.26932.7227 0 .30362-.57085.4723-1.8762.40223-.64815-.03504-1.29503-.06877-1.9432-.1025-.97158-.0493-1.74216-.22058-2.0437-.74217-2.0991-3.52008-4.19822-7.03238-6.29733-10.5343-.0451.00908-.0915.01816-.1353.02725v9.78306c0 .70973-.60435 1.05486-2.0102 1.00296-.39174-.01557-.78218-.02984-1.1739-.0441-1.40715-.04932-2.0102-.43856-2.0115-1.1483V74.24875zm21.47436 17.9183c.60307.03763 2.24345 1.68933 4.92114 1.87098 1.43935.0973 3.14674-.21798 3.14674-2.24206 0-3.99886-9.67474-3.08413-9.67474-10.9936 0-4.959 4.01782-6.67948 7.93256-6.40312 3.54878.24912 6.02416 1.69452 6.02416 2.80647 0 .91085-1.0373 2.85448-1.8401 2.7948-.43555-.03244-1.4703-.95625-3.71372-1.11454-2.61198-.18295-3.11324 1.00166-3.11324 1.77756 0 3.8263 9.67216 2.97903 9.67087 10.92484 0 5.59996-3.91473 7.179-7.56273 6.9286-5.08736-.34904-7.86814-2.32252-7.86685-3.4721 0-1.04577 1.37234-2.92193 2.0759-2.87782z" fill="url(#a)"/>
  </g>
</svg>
