<svg width="100" height="50" viewBox="0 0 100 50" xmlns="http://www.w3.org/2000/svg">
  <g fill="none" fill-rule="evenodd">
    <path d="M81.8264 2.2024c0-1.1887.96585-2.15312 2.15835-2.15312 1.20556-.00024 2.169.96466 2.169 2.15336l.00025 1.90433c0 1.18894-.9637 2.15-2.16925 2.15-1.1925 0-2.15836-.96058-2.15836-2.14952V2.2024M96.66344 8.28894C96.29298 7.1524 95.0736 6.5387 93.9368 6.90986l-9.94406 3.2214-9.9443-3.22188c-1.13658-.37092-2.35595.24326-2.72762 1.37956-.3719 1.1267.25133 2.344 1.38644 2.7053l7.78184 2.5233L75.7 20.06083c-.70533.96298-.48426 2.30336.4782 3.00096.97265.69784 2.32592.4827 3.0252-.4738l4.7983-6.55505 4.80048 6.55433c.70557.9572 2.05956 1.17308 3.02712.47452.96804-.6976 1.17893-2.03774.4765-3.00024l-4.784-6.5529 7.7564-2.51465c1.13488-.36107 1.7569-1.57837 1.38524-2.70506M60.57167 7.275c0-.9065.73535-1.64038 1.64334-1.64038.91793-.0005 1.65255.73413 1.65255 1.64038v1.4488c0 .90625-.73462 1.63798-1.65254 1.63798-.90798 0-1.64357-.73125-1.64357-1.6375l.00024-1.44928M71.8707 11.90913c-.2816-.86538-1.21138-1.3327-2.07724-1.05l-7.57264 2.45313-7.5724-2.45337c-.86658-.28294-1.79442.18485-2.077 1.05023-.28377.85746.19057 1.7851 1.05546 2.06034l5.92615 1.9214L55.9046 20.875c-.53487.7327-.36804 1.75433.36465 2.28486.74092.531 1.7712.36706 2.30412-.3613l3.65448-4.99183 3.65617 4.9916c.53705.7286 1.56828.89278 2.30484.36153.7368-.53053.8971-1.55217.36223-2.28462l-3.64263-4.99062 5.9075-1.91587c.86393-.27476 1.3385-1.20192 1.05473-2.05962M44.73753 11.38894c0-.67596.54964-1.2233 1.22663-1.2233.685-.0005 1.23197.54758 1.23197 1.22378l.00024 1.08197c0 .67475-.54722 1.2209-1.2322 1.2209-.67652 0-1.22664-.54567-1.22664-1.22067v-1.0827" fill="#FFD700"/>
    <path d="M53.16707 14.8464c-.21138-.6452-.9029-.99376-1.54964-.78294l-5.64915 1.82957-5.6489-1.82957c-.64577-.21082-1.33875.13798-1.54892.78293-.21138.6399.14286 1.33173.78644 1.53773l4.4213 1.43222-2.72082 3.71803c-.4.54567-.2748 1.30865.27192 1.70408.55302.39736 1.32082.275 1.71816-.26803l2.72687-3.72428 2.72664 3.72428c.40024.5428 1.16997.6654 1.71888.26803.5511-.39543.66998-1.1577.27095-1.7036l-2.71743-3.72332 4.4063-1.42765c.64454-.20602.99878-.89736.7874-1.5375" fill="#FFD700"/>
    <path d="M11.7 25.45697c-4.7138 0-7.15303 3.5911-7.15303 10.65048.00025 3.4697.69177 6.6565 1.86974 8.31058 1.05667 1.53245 2.96635 2.3798 5.2419 2.3798 4.71428 0 6.98958-3.42884 6.98958-10.6495 0-7.18126-2.23462-10.69112-6.94818-10.69112v-.00023zm-.12228 24.52716c-7.47772 0-11.5-4.88028-11.5-13.87668 0-8.9161 4.18548-13.87716 11.58088-13.87716 7.3557-.00025 11.45883 5.00215 11.45883 13.91802 0 8.9553-4.0632 13.8363-11.5397 13.8358zM37.90847 23.48005c-.36464-.0803-1.66537-.2416-3.33123-.2416-2.0724 0-2.6017.80626-2.6017 3.5094l.00025 3.67162h5.3644v2.7029h-5.3644v16.3793h-3.94093v-16.3793H24.6615v-2.3005l3.37337-.4435v-3.14592c0-2.82452.2034-3.8327.93414-4.88173.9356-1.37187 2.39807-2.0572 4.4293-2.0572 2.0322-.0005 4.3075.5644 4.91695.72667l-.40678 2.45985M44.1673 49.9041c-1.95108 0-3.65858-.28174-6.0966-.8868l.6506-2.6637c1.9511.44424 3.4138.6065 4.754.6065 2.6828-.00048 4.06417-.9685 4.06417-2.744.00024-1.49206-.56925-2.0971-3.2109-2.8238-3.53487-.96826-6.09443-2.13773-6.09443-5.56754.00024-3.67067 2.55956-5.8084 6.78523-5.8084 1.585-.00025 3.45448.32234 5.56683 1.0084l-.56828 2.50072c-1.3402-.28245-3.0879-.6048-4.5097-.6048-2.0731-.0005-3.292.84687-3.292 2.46105 0 4.03365 9.38644 1.41154 9.38644 8.23005.00025 3.99303-2.72276 6.2923-7.43535 6.2923M59.5666 49.9452c-1.8683 0-3.25014-.76683-3.94093-2.09736-.44698-.84832-.5695-1.8154-.5695-4.39832l.0005-10.32716h-3.25134V30.944l3.25133-.40458v-5.2834h3.9828v5.16345h5.2821v2.7029h-5.2821v9.19758c0 3.22765.03996 3.30842.3247 3.79207.28475.4834.85303.72668 1.70606.72668.93438-.00048 1.8288-.1625 3.37264-.56562l.60968 2.42163c-2.31695.8875-3.90097 1.2512-5.48595 1.2505M74.03317 32.7589c-2.60048 0-4.1448 1.85673-4.4695 5.40673l8.1264-.3238c-.08014-3.46947-1.21913-5.0827-3.65714-5.0827l.00024-.00024zM69.4414 40.4644v.64616c0 3.83293 1.6252 5.56562 4.63245 5.56562 1.74746-.00024 3.33245-.32235 6.46102-1.3303l.731 2.3392c-3.98185 1.7351-5.93294 2.2608-8.24868 2.2608-4.7138-.0007-7.80243-3.46946-7.80243-9.35984 0-6.41467 3.169-10.61058 8.49298-10.61058 5.16126-.00024 7.7615 3.1065 7.7615 9.60168l.00024.88726H69.4414zM95.93584 34.4541c-2.43923-.8476-3.21114-1.0488-4.3891-1.0488-2.6816 0-4.14456 2.1786-4.14456 6.45432 0 4.59903 1.34043 6.69615 3.98208 6.69615 1.09685-.00024 2.19443-.2416 4.55133-1.12837l.00024-10.9733zm.20242 15.04758V47.7661c-2.27555 1.2916-4.46925 2.1798-6.37918 2.1798-4.14504-.0007-6.5833-3.7524-6.5833-9.925 0-6.09205 2.80412-10.04542 7.03052-10.04542 2.07142-.00024 4.02203 1.0899 5.7293 2.09808l.00024-11.2161h3.98184v28.64422h-3.77942z" fill="#FFF"/>
  </g>
</svg>
