<svg width="34" height="32" viewBox="0 0 34 32" xmlns="http://www.w3.org/2000/svg">
  <path d="M2 10C-.47672 22.75107.56013 26.1156 11 30c10.06708 4.63595 17.28598.04178 21-8 3.16988-7.83222-.6133-16.9976-9-20C15.16928-1.7357 6.8028-.31746 2 10z" fill="#00ACFF"/>
  <path d="M14 25c-2.0273 0-4.18413-.66865-6-2 .321.2226.64765.2417 1 0 1.9012.2417 3.67047-.40405 5-1-1.72077-.52-3.2361-1.68777-4-3 .49226-.24537.74933-.2201 1 0 .38798-.2201.75047-.26942 1 0-1.78236-.73276-3.19668-2.36533-3-4-.19668-.3394-.19668-.3563 0 0 .3569-.07063.98954.11106 2 0-1.4388-.5923-2.16325-1.82864-2-3-.16325-.9702.0391-1.66406 0-2 2.41607 2.1831 5.43952 3.7912 9 4-.2202-.336-.25656-.6443 0-1-.25656-2.1915 1.58067-4 4-4 1.02696 0 2.09335.49056 3 1 .7765.0944 1.65467-.24176 2-1 .14108 1.23857-.5095 2.03016-1 3 .47332-.56757 1.26413-.7847 2-1-.55013.70407-1.24584 1.4155-2 2-.03958.15818-.03563.33238 0 1-.03563 4.84515-4.16277 11-12 11" fill="#FFF"/>
</svg>
