<svg width="32" height="32" viewBox="0 0 32 32" xmlns="http://www.w3.org/2000/svg">
  <path d="M3 27c2.93 3.271 8.264 5 13 5 11 0 16-8.163 16-18 0-8-7.163-14-16-14s-16 7.163-16 16c0 4.1.464 8.169 3 11z" fill="#E62D28"/>
  <path d="M14 19v-6l5 3-5 3zm12-7c-.2.02-.395-1.351-1-2-.755-.748-1.608-.752-2-1h-14c-.392.248-1.244.252-2 1-.605.649-.8 2.02-1 2 .2.02 0 1.631 0 3v2c0 1.363.2 2.973 0 3 .2-.027.395 1.345 1 2 .756.742 1.755.717 2 1 1.8-.047 7 0 7 0s4.203-.006 7 0c.392-.254 1.245-.258 2-1 .605-.655.8-2.027 1-2-.2-.027 0-1.637 0-3v-2c0-1.369-.2-2.98 0-3z" fill="#fff"/>
</svg>
